<?xml version="1.0" encoding="UTF-8" standalone="no"?>
<svg
   xmlns:dc="http://purl.org/dc/elements/1.1/"
   xmlns:cc="http://creativecommons.org/ns#"
   xmlns:rdf="http://www.w3.org/1999/02/22-rdf-syntax-ns#"
   xmlns:svg="http://www.w3.org/2000/svg"
   xmlns="http://www.w3.org/2000/svg"
   xmlns:sodipodi="http://sodipodi.sourceforge.net/DTD/sodipodi-0.dtd"
   xmlns:inkscape="http://www.inkscape.org/namespaces/inkscape"
   viewBox="73 73 1280 720.00002"
   id="svg2"
   version="1.1"
   inkscape:version="0.48.5 r10040"
   width="100%"
   height="100%"
   sodipodi:docname="big-screen.svg">
  <metadata
     id="metadata16">
    <rdf:RDF>
      <cc:Work
         rdf:about="">
        <dc:format>image/svg+xml</dc:format>
        <dc:type
           rdf:resource="http://purl.org/dc/dcmitype/StillImage" />
        <dc:title></dc:title>
      </cc:Work>
    </rdf:RDF>
  </metadata>
  <defs
     id="defs14" />
  <sodipodi:namedview
     pagecolor="#ffffff"
     bordercolor="#666666"
     borderopacity="1"
     objecttolerance="10"
     gridtolerance="10"
     guidetolerance="10"
     inkscape:pageopacity="0"
     inkscape:pageshadow="2"
     inkscape:window-width="1362"
     inkscape:window-height="723"
     id="namedview12"
     showgrid="false"
     inkscape:zoom="0.65416665"
     inkscape:cx="659.1083"
     inkscape:cy="360.00001"
     inkscape:window-x="4"
     inkscape:window-y="0"
     inkscape:window-maximized="1"
     inkscape:current-layer="svg2"
     fit-margin-top="0"
     fit-margin-left="0"
     fit-margin-right="0"
     fit-margin-bottom="0" />
  <rect
     style="fill:#36342e;fill-opacity:1;stroke:none"
     id="rect3012"
     width="1280"
     height="720"
     x="73"
     y="73" />
  <g
     id="g3014"
     transform="matrix(7.005245,0,0,6.8184929,28.808905,-298.76243)">
    <path
       id="path4"
       d="m 79.348,81.1 c 0.01,8.02 4.608,24.36 20.22,24.28 6.645,-0.033 12.03,-5.383 12.03,-12.03 0,-6.646 -5.385,-11.977 -12.03,-12.03 -6.92,-0.057 -9.348,4.413 -12.907,5.593 -3.832,1.27 -7.31,-6.027 -7.31,-5.813 z m 2.406,5.28 c 1.222,2.115 4.882,3.47 6.875,1.44 -1.4,2.525 -3.058,7.5 1.56,12.905 -4.696,-2.32 -8.47,-12.568 -8.437,-14.343 z"
       inkscape:connector-curvature="0"
       style="fill:#ffc200" />
    <path
       id="path6"
       d="m 99.457,83.3 c -5.633,0 -10.2,4.5 -10.2,10.045 0,5.152 3.926,9.38 9,9.958 0.25,0.013 0.39,-0.008 0.51,-0.11 0.095,-0.08 0.145,-0.22 0.145,-0.34 v -5.978 c -2.747,-0.286 -4.947,-2.557 -4.913,-5.337 0.03,-2.656 1.86,-4.776 4.28,-5.276 0.064,-0.013 0.112,-0.033 0.145,0 0.038,0.038 0.012,0.134 0.012,0.134 l -0.18,0.885 c 0,0 -0.01,0.056 -0.026,0.073 -0.015,0.017 -0.034,0.03 -0.06,0.037 -1.05,0.328 -2.003,1.04 -2.462,1.903 -0.383,0.718 -0.63,1.254 -0.63,2.232 0,2.105 1.648,4.03 3.83,4.293 v -6.646 c 0,-0.694 0.04,-1.508 0.45,-2.062 0.32,-0.432 0.87,-0.692 1.747,-0.692 1.26,0 2.768,0.914 3.53,2.91 0.23,0.605 0.366,1.37 0.363,2.197 -0.007,2.77 -2.166,5.04 -4.9,5.337 v 5.99 c 0,0.16 0.042,0.283 0.134,0.353 0.11,0.086 0.212,0.124 0.52,0.097 0.116,-0.01 0.332,-0.044 0.426,-0.06 4.81,-0.806 8.466,-4.93 8.466,-9.898 0,-5.546 -4.556,-10.043 -10.19,-10.043 z m 1.65,4.174 c -0.52,0.047 -0.743,0.244 -0.86,0.522 -0.12,0.278 -0.147,0.91 -0.147,1.177 v 6.634 c 1.26,-0.168 2.424,-0.896 3.154,-2.05 0.408,-0.643 0.622,-1.49 0.655,-2.243 0.045,-1.104 -0.283,-1.995 -0.718,-2.705 -0.435,-0.71 -1.218,-1.415 -2.086,-1.336 z"
       inkscape:connector-curvature="0"
       style="fill:#7a5d00;fill-opacity:0.94100001" />
    <path
       id="path8"
       d="m 94.842,81.138 c -6.83,2.355 -7.092,4.75 -9.415,4.198 C 83.103,84.784 79.055,76.32 73,73 c 13.356,4.516 7.47,10.738 21.842,8.138 z"
       inkscape:connector-curvature="0"
       style="fill:#ffc200" />
    <path
       id="path10"
       d="m 79.05,74.817 c 7.285,0.164 8.36,4.873 12.98,5.52 -7.956,0.988 -7.652,-4.347 -12.98,-5.52 z"
       inkscape:connector-curvature="0"
       style="fill:#ffc200" />
  </g>
  <text
     xml:space="preserve"
     style="font-size:48px;font-style:normal;font-variant:normal;font-weight:normal;font-stretch:normal;text-align:center;line-height:125%;letter-spacing:0px;word-spacing:0px;writing-mode:lr-tb;text-anchor:middle;fill:#ffc200;fill-opacity:1;stroke:none;font-family:Century Gothic;-inkscape-font-specification:Century Gothic"
     x="722.85651"
     y="545.10126"
     id="text3788"
     sodipodi:linespacing="125%"
     transform="scale(0.98653332,1.0136505)"><tspan
       sodipodi:role="line"
       x="722.85651"
       y="545.10126"
       id="tspan3792"
       style="font-size:48px;font-style:normal;font-variant:normal;font-weight:normal;font-stretch:normal;text-align:center;line-height:125%;writing-mode:lr-tb;text-anchor:middle;fill:#ffc200;fill-opacity:1;stroke:none;font-family:Century Gothic;-inkscape-font-specification:Century Gothic">famous-views</tspan></text>
  <text
     transform="scale(0.98653332,1.0136505)"
     sodipodi:linespacing="125%"
     id="text3796"
     y="763.91235"
     x="79.472939"
     style="font-size:23.84775543px;font-style:normal;font-variant:normal;font-weight:normal;font-stretch:normal;text-align:start;line-height:125%;letter-spacing:0px;word-spacing:0px;writing-mode:lr-tb;text-anchor:start;fill:#eeeeec;fill-opacity:1;stroke:none;font-family:Century Gothic;-inkscape-font-specification:Century Gothic"
     xml:space="preserve"><tspan
       style="font-size:23.84775543px;text-align:start;text-anchor:start;fill:#eeeeec;fill-opacity:1;stroke:none"
       id="tspan3798"
       y="763.91235"
       x="79.472939"
       sodipodi:role="line">http://famous-views.meteor.com</tspan></text>
  <text
     transform="scale(0.98653332,1.0136505)"
     sodipodi:linespacing="125%"
     id="text3800"
     y="573.71069"
     x="722.85651"
     style="font-size:20px;font-style:normal;font-variant:normal;font-weight:normal;font-stretch:normal;text-align:center;line-height:125%;letter-spacing:0px;word-spacing:0px;writing-mode:lr-tb;text-anchor:middle;fill:#eeeeec;fill-opacity:1;stroke:none;font-family:Century Gothic;-inkscape-font-specification:Century Gothic"
     xml:space="preserve"><tspan
       style="font-size:20px;font-style:normal;font-variant:normal;font-weight:normal;font-stretch:normal;text-align:center;line-height:125%;writing-mode:lr-tb;text-anchor:middle;fill:#eeeeec;fill-opacity:1;stroke:none;font-family:Century Gothic;-inkscape-font-specification:Century Gothic"
       id="tspan3802"
       y="573.71069"
       x="722.85651"
       sodipodi:role="line">the bridge between Meteor and famo.us</tspan></text>
</svg>
