<?xml version="1.0" encoding="UTF-8" standalone="no"?>
<svg
   xmlns:dc="http://purl.org/dc/elements/1.1/"
   xmlns:cc="http://creativecommons.org/ns#"
   xmlns:rdf="http://www.w3.org/1999/02/22-rdf-syntax-ns#"
   xmlns:svg="http://www.w3.org/2000/svg"
   xmlns="http://www.w3.org/2000/svg"
   xmlns:sodipodi="http://sodipodi.sourceforge.net/DTD/sodipodi-0.dtd"
   xmlns:inkscape="http://www.inkscape.org/namespaces/inkscape"
   viewBox="73 73 260 260"
   id="svg2"
   version="1.1"
   inkscape:version="0.48.5 r10040"
   width="100%"
   height="100%"
   sodipodi:docname="windows-tile.svg">
  <metadata
     id="metadata16">
    <rdf:RDF>
      <cc:Work
         rdf:about="">
        <dc:format>image/svg+xml</dc:format>
        <dc:type
           rdf:resource="http://purl.org/dc/dcmitype/StillImage" />
        <dc:title />
      </cc:Work>
    </rdf:RDF>
  </metadata>
  <defs
     id="defs14" />
  <sodipodi:namedview
     pagecolor="#525252"
     bordercolor="#666666"
     borderopacity="1"
     objecttolerance="10"
     gridtolerance="10"
     guidetolerance="10"
     inkscape:pageopacity="1"
     inkscape:pageshadow="2"
     inkscape:window-width="1052"
     inkscape:window-height="626"
     id="namedview12"
     showgrid="false"
     inkscape:zoom="0.91102959"
     inkscape:cx="19.299055"
     inkscape:cy="16.190473"
     inkscape:window-x="237"
     inkscape:window-y="53"
     inkscape:window-maximized="0"
     inkscape:current-layer="svg2" />
  <path
     style="fill:#ffffff"
     d="M 0 20.9375 C 40.787088 43.301348 68.06405 100.31292 83.71875 104.03125 C 99.36671 107.74957 101.11744 91.61351 147.125 75.75 C 50.31377 93.26386 89.967358 51.357728 0 20.9375 z M 40.75 33.1875 C 76.63994 41.08894 74.59509 77.03027 128.1875 70.375 C 97.06672 66.01674 89.82249 34.29222 40.75 33.1875 z M 42.8125 75.46875 C 42.801141 75.466982 42.78125 75.477476 42.78125 75.5 L 42.75 75.5 C 42.8174 129.52353 73.80476 239.60139 178.96875 239.0625 C 223.73014 238.84021 260 202.80611 260 158.03125 C 260 113.26313 223.73014 77.35701 178.96875 77 C 132.35494 76.61604 116.00503 106.70765 92.03125 114.65625 C 66.621834 123.07742 43.528133 75.58011 42.8125 75.46875 z M 178.21875 90.3125 L 178.1875 90.34375 C 216.13869 90.34375 246.84375 120.64159 246.84375 158 C 246.84375 191.46495 222.21314 219.22696 189.8125 224.65625 C 189.1793 224.76403 187.71889 224.9951 186.9375 225.0625 C 184.86278 225.24437 184.17847 224.98555 183.4375 224.40625 C 182.81777 223.93472 182.53125 223.10903 182.53125 222.03125 L 182.53125 181.6875 C 200.94775 179.68688 215.48415 164.40899 215.53125 145.75 C 215.55146 140.17924 214.64306 135.01284 213.09375 130.9375 C 207.96085 117.49225 197.79999 111.34375 189.3125 111.34375 C 183.40494 111.34375 179.71806 113.09001 177.5625 116 C 174.8007 119.7318 174.53125 125.20015 174.53125 129.875 L 174.53125 174.65625 C 159.83308 172.88466 148.71875 159.92949 148.71875 145.75 C 148.71875 139.16209 150.38882 135.52402 152.96875 130.6875 C 156.06062 124.87425 162.48959 120.08444 169.5625 117.875 C 169.73764 117.82785 169.83646 117.73951 169.9375 117.625 C 170.04524 117.51048 170.125 117.125 170.125 117.125 L 171.34375 111.1875 C 171.34375 111.1875 171.50597 110.53723 171.25 110.28125 C 171.0277 110.05896 170.71236 110.19365 170.28125 110.28125 C 153.97989 113.6493 141.63959 127.92142 141.4375 145.8125 C 141.20847 164.53886 156.02719 179.85472 174.53125 181.78125 L 174.53125 222.03125 C 174.53125 222.83959 174.20243 223.77361 173.5625 224.3125 C 172.75417 224.99957 171.80902 225.1501 170.125 225.0625 C 135.94602 221.16903 109.5 192.70439 109.5 158 C 109.5 120.64833 140.27429 90.3125 178.21875 90.3125 z M 58.96875 111.09375 C 67.213352 125.32758 91.863355 134.44825 105.28125 120.78125 C 95.85071 137.7899 84.67394 171.27888 115.78125 207.6875 C 84.14852 192.05975 58.74646 123.05032 58.96875 111.09375 z M 190.40625 118.40625 C 195.81417 118.50702 200.62793 122.95378 203.375 127.4375 C 206.3052 132.22013 208.52187 138.2196 208.21875 145.65625 C 207.99645 150.72854 206.52958 156.41868 203.78125 160.75 C 198.8639 168.52346 191.04999 173.43084 182.5625 174.5625 L 182.5625 129.875 C 182.5625 128.07646 182.72291 123.84139 183.53125 121.96875 C 184.31695 120.10188 185.83277 118.75931 189.3125 118.4375 C 189.67793 118.40424 190.04572 118.39953 190.40625 118.40625 z "
     transform="translate(73,73)"
     id="path4" />
</svg>
